<svg xmlns="http://www.w3.org/2000/svg" width="80" height="80" viewBox="0 0 64 64" style=""><path fill="none" stroke="#3eaca8" stroke-width="2" stroke-miterlimit="10" d="M1 22h62v30H1z" stroke-dasharray="184,186" class="dhVCVTXh_0"></path><path fill="none" stroke="#3eaca8" stroke-width="2" stroke-miterlimit="10" d="M7 22v-8h14V7H11V4" stroke-dasharray="42,44" class="dhVCVTXh_1"></path><path fill="none" stroke="#3eaca8" stroke-width="2" stroke-miterlimit="10" d="M4 29h4M10 29h4M16 29h4M22 29h4M28 29h4M34 29h4M40 29h4M46 29h4M52 29h4M4 45h4M10 45h4" stroke-dasharray="4,6" class="dhVCVTXh_2"></path><path fill="none" stroke="#3eaca8" stroke-width="2" stroke-miterlimit="10" d="M16 45h26" stroke-dasharray="26,28" class="dhVCVTXh_3"></path><path fill="none" stroke="#3eaca8" stroke-width="2" stroke-miterlimit="10" d="M50 45h4M56 45h4M44 45h4M8 37h4M14 37h4M20 37h4M26 37h4M32 37h4M38 37h4M44 37h4M50 37h4M56 37h4" stroke-dasharray="4,6" class="dhVCVTXh_4"></path><style data-made-with="vivus-instant">.dhVCVTXh_0{stroke-dasharray:184 186;stroke-dashoffset:185;animation:dhVCVTXh_draw 2000ms linear 0ms forwards;}.dhVCVTXh_1{stroke-dasharray:42 44;stroke-dashoffset:43;animation:dhVCVTXh_draw 2000ms linear 250ms forwards;}.dhVCVTXh_2{stroke-dasharray:44 46;stroke-dashoffset:45;animation:dhVCVTXh_draw 2000ms linear 500ms forwards;}.dhVCVTXh_3{stroke-dasharray:26 28;stroke-dashoffset:27;animation:dhVCVTXh_draw 2000ms linear 750ms forwards;}.dhVCVTXh_4{stroke-dasharray:48 50;stroke-dashoffset:49;animation:dhVCVTXh_draw 2000ms linear 1000ms forwards;}@keyframes dhVCVTXh_draw{100%{stroke-dashoffset:0;}}@keyframes dhVCVTXh_fade{0%{stroke-opacity:1;}94.44444444444444%{stroke-opacity:1;}100%{stroke-opacity:0;}}</style></svg>