<svg width="25" height="25" viewBox="0 0 76 86" fill="none" xmlns="http://www.w3.org/2000/svg">
<path d="M63 0C55.8321 0 50 5.8321 50 13C50 15.0807 50.5006 17.0342 51.375 18.7812L23.5938 35.4688C21.2317 32.1512 17.3679 30 13 30C5.83214 30 0 35.8321 0 43C0 50.1678 5.83214 56 13 56C17.3679 56 21.2317 53.8488 23.5938 50.5312L51.375 67.2188C50.5006 68.9658 50 70.9193 50 73C50 80.1679 55.8321 86 63 86C70.1679 86 76 80.1679 76 73C76 65.8321 70.1679 60 63 60C58.6321 60 54.7683 62.1512 52.4062 65.4688L24.625 48.8125C25.5072 47.0592 26 45.0906 26 43C26 40.9094 25.5072 38.9408 24.625 37.1875L52.4062 20.5312C54.7683 23.8488 58.6321 26 63 26C70.1679 26 76 20.1679 76 13C76 5.8321 70.1679 0 63 0ZM63 2C69.087 2 74 6.913 74 13C74 19.087 69.087 24 63 24C56.913 24 52 19.087 52 13C52 6.913 56.913 2 63 2ZM13 32C19.087 32 24 36.913 24 43C24 49.087 19.087 54 13 54C6.91302 54 2 49.087 2 43C2 36.913 6.91302 32 13 32ZM63 62C69.087 62 74 66.913 74 73C74 79.087 69.087 84 63 84C56.913 84 52 79.087 52 73C52 66.913 56.913 62 63 62Z" fill="white"/>
</svg>
